<svg width="293" height="119" viewBox="0 0 293 119" fill="none" xmlns="http://www.w3.org/2000/svg">
<path d="M56.608 87C56.192 87 55.864 86.736 55.624 86.208L49.696 72.168C49.576 71.888 49.544 71.64 49.6 71.424C49.656 71.2 49.84 71.016 50.152 70.872C50.808 70.544 51.272 70.712 51.544 71.376L57.148 84.648H56.452L61.912 71.376C62.176 70.72 62.64 70.552 63.304 70.872C63.584 71.016 63.756 71.2 63.82 71.424C63.892 71.64 63.872 71.888 63.76 72.168L57.784 86.208C57.536 86.736 57.176 87 56.704 87H56.608ZM66.6704 81.744V82.32C66.6704 83.352 66.8584 84.056 67.2344 84.432C67.6104 84.8 68.3184 84.984 69.3584 84.984H71.3264C72.1424 84.984 72.7464 84.908 73.1384 84.756C73.5304 84.604 73.7904 84.336 73.9184 83.952C74.0064 83.648 74.1264 83.416 74.2784 83.256C74.4384 83.096 74.6784 83.016 74.9984 83.016C75.3344 83.016 75.5904 83.104 75.7664 83.28C75.9424 83.456 75.9984 83.712 75.9344 84.048C75.7584 85.04 75.2864 85.78 74.5184 86.268C73.7504 86.756 72.6864 87 71.3264 87H69.3584C67.7664 87 66.5824 86.616 65.8064 85.848C65.0384 85.08 64.6544 83.904 64.6544 82.32V79.536C64.6544 77.912 65.0384 76.72 65.8064 75.96C66.5824 75.192 67.7664 74.816 69.3584 74.832H71.3264C72.9264 74.832 74.1104 75.216 74.8784 75.984C75.6464 76.744 76.0304 77.928 76.0304 79.536V80.736C76.0304 81.408 75.6944 81.744 75.0224 81.744H66.6704ZM69.3584 76.848C68.3184 76.832 67.6104 77.012 67.2344 77.388C66.8584 77.764 66.6704 78.48 66.6704 79.536V79.728H74.0144V79.536C74.0144 78.488 73.8264 77.78 73.4504 77.412C73.0824 77.036 72.3744 76.848 71.3264 76.848H69.3584ZM81.4493 87C80.7773 87 80.4413 86.664 80.4413 85.992V75.84C80.4413 75.168 80.7773 74.832 81.4493 74.832C82.1213 74.832 82.4573 75.168 82.4573 75.84V76.776C82.9293 76.136 83.5293 75.652 84.2573 75.324C84.9933 74.996 85.8333 74.832 86.7773 74.832C87.4493 74.832 87.7853 75.168 87.7853 75.84C87.7853 76.512 87.4493 76.848 86.7773 76.848C85.3933 76.848 84.3373 77.104 83.6093 77.616C82.8813 78.128 82.4973 78.804 82.4573 79.644V85.992C82.4573 86.664 82.1213 87 81.4493 87ZM91.3555 72.864C90.5955 72.864 90.2155 72.48 90.2155 71.712V71.004C90.2155 70.252 90.5955 69.876 91.3555 69.876H92.0515C92.7795 69.876 93.1435 70.252 93.1435 71.004V71.712C93.1435 72.48 92.7795 72.864 92.0515 72.864H91.3555ZM91.6915 87C91.0195 87 90.6835 86.664 90.6835 85.992V75.84C90.6835 75.168 91.0195 74.832 91.6915 74.832C92.3635 74.832 92.6995 75.168 92.6995 75.84V85.992C92.6995 86.664 92.3635 87 91.6915 87ZM102.827 87C101.243 87 100.075 86.624 99.3233 85.872C98.5713 85.12 98.1953 83.96 98.1953 82.392V76.848H97.0193C96.3473 76.848 96.0113 76.512 96.0113 75.84C96.0113 75.168 96.3473 74.832 97.0193 74.832H98.1953V73.08C98.1953 72.408 98.5313 72.072 99.2033 72.072C99.8753 72.072 100.211 72.408 100.211 73.08V74.832H102.971C103.643 74.832 103.979 75.168 103.979 75.84C103.979 76.512 103.643 76.848 102.971 76.848H100.211V82.392C100.211 83.408 100.395 84.096 100.763 84.456C101.131 84.808 101.819 84.984 102.827 84.984C103.139 84.984 103.383 85.064 103.559 85.224C103.743 85.384 103.835 85.64 103.835 85.992C103.835 86.664 103.499 87 102.827 87ZM117.634 74.832C118.306 74.832 118.642 75.168 118.642 75.84V85.992C118.642 86.664 118.306 87 117.634 87C116.962 87 116.626 86.664 116.626 85.992V85.596C115.778 86.532 114.53 87 112.882 87H112.21C110.618 87 109.434 86.616 108.658 85.848C107.89 85.072 107.506 83.888 107.506 82.296V75.84C107.506 75.168 107.842 74.832 108.514 74.832C109.186 74.832 109.522 75.168 109.522 75.84V82.296C109.522 83.336 109.71 84.044 110.086 84.42C110.47 84.796 111.178 84.984 112.21 84.984H112.882C113.842 84.984 114.678 84.872 115.39 84.648C116.11 84.424 116.522 84.08 116.626 83.616V75.84C116.626 75.168 116.962 74.832 117.634 74.832ZM126.493 87C125.477 87 124.673 86.792 124.081 86.376C123.489 85.952 123.109 85.32 122.941 84.48C122.885 84.144 122.949 83.88 123.133 83.688C123.325 83.496 123.589 83.4 123.925 83.4C124.253 83.4 124.489 83.484 124.633 83.652C124.785 83.812 124.909 84.056 125.005 84.384C125.101 84.624 125.261 84.784 125.485 84.864C125.717 84.944 126.053 84.984 126.493 84.984H130.429C131.053 84.984 131.473 84.884 131.689 84.684C131.905 84.476 132.013 84.048 132.013 83.4C132.013 82.76 131.905 82.336 131.689 82.128C131.473 81.92 131.053 81.816 130.429 81.816H126.565C125.413 81.816 124.545 81.524 123.961 80.94C123.377 80.356 123.085 79.488 123.085 78.336C123.085 77.16 123.369 76.284 123.937 75.708C124.513 75.124 125.389 74.832 126.565 74.832H130.309C132.189 74.832 133.301 75.624 133.645 77.208C133.709 77.544 133.645 77.804 133.453 77.988C133.261 78.172 132.997 78.264 132.661 78.264C132.349 78.264 132.117 78.184 131.965 78.024C131.813 77.856 131.693 77.624 131.605 77.328C131.509 77.136 131.361 77.008 131.161 76.944C130.969 76.88 130.685 76.848 130.309 76.848H126.565C125.957 76.848 125.561 76.94 125.377 77.124C125.193 77.308 125.101 77.712 125.101 78.336C125.101 78.912 125.197 79.3 125.389 79.5C125.589 79.7 125.981 79.8 126.565 79.8H130.429C131.629 79.8 132.529 80.1 133.129 80.7C133.729 81.3 134.029 82.2 134.029 83.4C134.029 84.608 133.729 85.512 133.129 86.112C132.529 86.704 131.629 87 130.429 87H126.493ZM149.983 87C148.391 87 147.207 86.616 146.431 85.848C145.663 85.072 145.279 83.888 145.279 82.296V79.512C145.279 77.912 145.659 76.728 146.419 75.96C147.187 75.192 148.375 74.816 149.983 74.832H151.951C153.143 74.832 154.079 75.032 154.759 75.432C155.447 75.832 155.887 76.448 156.079 77.28C156.151 77.616 156.091 77.876 155.899 78.06C155.715 78.244 155.447 78.336 155.095 78.336C154.783 78.336 154.555 78.256 154.411 78.096C154.267 77.936 154.135 77.712 154.015 77.424C153.895 77.208 153.675 77.06 153.355 76.98C153.035 76.892 152.567 76.848 151.951 76.848H149.983C148.951 76.832 148.243 77.012 147.859 77.388C147.483 77.756 147.295 78.464 147.295 79.512V82.296C147.295 83.336 147.483 84.044 147.859 84.42C148.243 84.796 148.951 84.984 149.983 84.984H151.951C152.567 84.984 153.035 84.944 153.355 84.864C153.675 84.776 153.895 84.624 154.015 84.408C154.135 84.104 154.267 83.876 154.411 83.724C154.563 83.572 154.799 83.496 155.119 83.496C155.455 83.496 155.715 83.588 155.899 83.772C156.091 83.956 156.151 84.216 156.079 84.552C155.887 85.376 155.447 85.992 154.759 86.4C154.079 86.8 153.143 87 151.951 87H149.983ZM164.397 87C162.805 87 161.621 86.616 160.845 85.848C160.077 85.08 159.693 83.904 159.693 82.32V79.536C159.693 77.928 160.077 76.744 160.845 75.984C161.621 75.216 162.805 74.832 164.397 74.832H166.365C167.965 74.832 169.149 75.216 169.917 75.984C170.685 76.752 171.069 77.936 171.069 79.536V82.296C171.069 83.888 170.685 85.072 169.917 85.848C169.149 86.616 167.965 87 166.365 87H164.397ZM161.709 82.32C161.709 83.352 161.897 84.056 162.273 84.432C162.649 84.8 163.357 84.984 164.397 84.984H166.365C167.413 84.984 168.121 84.796 168.489 84.42C168.865 84.044 169.053 83.336 169.053 82.296V79.536C169.053 78.488 168.865 77.78 168.489 77.412C168.121 77.036 167.413 76.848 166.365 76.848H164.397C163.701 76.848 163.157 76.928 162.765 77.088C162.381 77.24 162.109 77.512 161.949 77.904C161.789 78.288 161.709 78.832 161.709 79.536V82.32ZM176.488 87C175.816 87 175.48 86.664 175.48 85.992V75.84C175.48 75.168 175.816 74.832 176.488 74.832C177.16 74.832 177.496 75.168 177.496 75.84V76.236C178.344 75.3 179.592 74.832 181.24 74.832H181.912C183.512 74.832 184.696 75.216 185.464 75.984C186.232 76.752 186.616 77.936 186.616 79.536V85.992C186.616 86.664 186.28 87 185.608 87C184.936 87 184.6 86.664 184.6 85.992V79.536C184.6 78.488 184.408 77.78 184.024 77.412C183.648 77.036 182.944 76.848 181.912 76.848H181.24C180.28 76.848 179.444 76.96 178.732 77.184C178.02 77.4 177.608 77.744 177.496 78.216V85.992C177.496 86.664 177.16 87 176.488 87ZM196.507 87C194.923 87 193.755 86.624 193.003 85.872C192.251 85.12 191.875 83.96 191.875 82.392V76.848H190.699C190.027 76.848 189.691 76.512 189.691 75.84C189.691 75.168 190.027 74.832 190.699 74.832H191.875V73.08C191.875 72.408 192.211 72.072 192.883 72.072C193.555 72.072 193.891 72.408 193.891 73.08V74.832H196.651C197.323 74.832 197.659 75.168 197.659 75.84C197.659 76.512 197.323 76.848 196.651 76.848H193.891V82.392C193.891 83.408 194.075 84.096 194.443 84.456C194.811 84.808 195.499 84.984 196.507 84.984C196.819 84.984 197.063 85.064 197.239 85.224C197.423 85.384 197.515 85.64 197.515 85.992C197.515 86.664 197.179 87 196.507 87ZM205.379 73.344C204.939 72.976 204.907 72.568 205.283 72.12L207.035 70.008C207.403 69.568 207.811 69.536 208.259 69.912C208.707 70.264 208.739 70.672 208.355 71.136L206.603 73.248C206.259 73.688 205.851 73.72 205.379 73.344ZM204.443 87C203.099 87 202.099 86.672 201.443 86.016C200.787 85.36 200.459 84.36 200.459 83.016C200.459 81.672 200.783 80.672 201.431 80.016C202.087 79.36 203.091 79.032 204.443 79.032H209.519C209.471 78.192 209.251 77.62 208.859 77.316C208.467 77.004 207.795 76.848 206.843 76.848H205.451C204.651 76.848 204.055 76.904 203.663 77.016C203.271 77.12 202.995 77.312 202.835 77.592C202.691 77.928 202.543 78.16 202.391 78.288C202.239 78.416 202.011 78.48 201.707 78.48C201.371 78.48 201.107 78.388 200.915 78.204C200.723 78.012 200.667 77.76 200.747 77.448C200.987 76.544 201.487 75.884 202.247 75.468C203.015 75.044 204.083 74.832 205.451 74.832H206.843C208.443 74.832 209.627 75.216 210.395 75.984C211.163 76.752 211.547 77.936 211.547 79.536V85.992C211.547 86.664 211.211 87 210.539 87C209.867 87 209.531 86.664 209.531 85.992V85.452C208.675 86.484 207.427 87 205.787 87H204.443ZM204.443 84.984H205.787C206.379 84.984 206.935 84.932 207.455 84.828C207.975 84.716 208.419 84.516 208.787 84.228C209.163 83.94 209.411 83.528 209.531 82.992V81.048H204.443C203.651 81.048 203.123 81.18 202.859 81.444C202.603 81.708 202.475 82.232 202.475 83.016C202.475 83.808 202.603 84.336 202.859 84.6C203.123 84.856 203.651 84.984 204.443 84.984ZM217.317 87C216.645 87 216.309 86.664 216.309 85.992V71.112C216.309 70.44 216.645 70.104 217.317 70.104C217.989 70.104 218.325 70.44 218.325 71.112V76.116C218.741 75.692 219.261 75.372 219.885 75.156C220.509 74.94 221.237 74.832 222.069 74.832H222.981C224.581 74.832 225.765 75.216 226.533 75.984C227.301 76.752 227.685 77.936 227.685 79.536V82.296C227.685 83.888 227.301 85.072 226.533 85.848C225.765 86.616 224.581 87 222.981 87H222.069C221.237 87 220.509 86.892 219.885 86.676C219.261 86.46 218.741 86.144 218.325 85.728V85.992C218.325 86.664 217.989 87 217.317 87ZM222.069 84.984H222.981C224.029 84.984 224.737 84.796 225.105 84.42C225.481 84.036 225.669 83.328 225.669 82.296V79.536C225.669 78.488 225.477 77.78 225.093 77.412C224.717 77.036 224.013 76.848 222.981 76.848H222.069C221.013 76.848 220.125 76.984 219.405 77.256C218.685 77.52 218.325 77.936 218.325 78.504V83.328C218.325 83.888 218.685 84.304 219.405 84.576C220.125 84.848 221.013 84.984 222.069 84.984ZM232.777 72.864C232.017 72.864 231.637 72.48 231.637 71.712V71.004C231.637 70.252 232.017 69.876 232.777 69.876H233.473C234.201 69.876 234.565 70.252 234.565 71.004V71.712C234.565 72.48 234.201 72.864 233.473 72.864H232.777ZM233.113 87C232.441 87 232.105 86.664 232.105 85.992V75.84C232.105 75.168 232.441 74.832 233.113 74.832C233.785 74.832 234.121 75.168 234.121 75.84V85.992C234.121 86.664 233.785 87 233.113 87ZM242.737 87C241.513 87 240.601 86.7 240.001 86.1C239.409 85.492 239.113 84.576 239.113 83.352V71.112C239.113 70.44 239.449 70.104 240.121 70.104C240.793 70.104 241.129 70.44 241.129 71.112V83.352C241.129 84 241.233 84.436 241.441 84.66C241.657 84.876 242.089 84.984 242.737 84.984C243.425 84.984 243.769 85.32 243.769 85.992C243.793 86.664 243.449 87 242.737 87Z" fill="white"/>
<path d="M133 39.5C133 38.1193 134.119 37 135.5 37V37C136.881 37 138 38.1193 138 39.5V51.5C138 52.8807 136.881 54 135.5 54V54C134.119 54 133 52.8807 133 51.5V39.5Z" fill="#C4C4C4"/>
<path d="M144 34.5C144 33.1193 145.119 32 146.5 32V32C147.881 32 149 33.1193 149 34.5V51.5C149 52.8807 147.881 54 146.5 54V54C145.119 54 144 52.8807 144 51.5V34.5Z" fill="#7A8AC8"/>
<path d="M156 30.5C156 29.1193 157.119 28 158.5 28V28C159.881 28 161 29.1193 161 30.5V51.5C161 52.8807 159.881 54 158.5 54V54C157.119 54 156 52.8807 156 51.5V30.5Z" fill="#2142C7"/>
</svg>
